{
  "accessors": [
    {
      "bufferView": 2,
      "componentType": 5126,
      "count": 50752,
      "max": [
        461.2869873046875,
        368.78631591796875,
        462.89801025390625
      ],
      "min": [
        0.0,
        0.0,
        0.0
      ],
      "type": "VEC3"
    },
    {
      "bufferView": 2,
      "byteOffset": 609024,
      "componentType": 5126,
      "count": 50752,
      "max": [
        0.9997890591621399,
        1.0,
        0.999943733215332
      ],
      "min": [
        -0.9999864101409912,
        -0.9999574422836304,
        -0.999902606010437
      ],
      "type": "VEC3"
    },
    {
      "bufferView": 3,
      "componentType": 5126,
      "count": 50752,
      "max": [
        0.9998078346252441,
        0.9831576347351074,
        0.9995030760765076,
        1.0
      ],
      "min": [
        -0.9999968409538269,
        -0.9725801348686218,
        -0.9999775290489197,
        1.0
      ],
      "type": "VEC4"
    },
    {
      "bufferView": 1,
      "componentType": 5126,
      "count": 50752,
      "max": [
        0.9980000257492065,
        0.9980000257492065
      ],
      "min": [
        0.0019000000320374966,
        0.0071000000461936
      ],
      "type": "VEC2"
    },
    {
      "bufferView": 0,
      "componentType": 5125,
      "count": 297846,
      "type": "SCALAR"
    }
  ],
  "asset": {
    "extras": {
      "author": "Virtual Museums of Małopolska (https://sketchfab.com/WirtualneMuzeaMalopolski)",
      "license": "CC0-1.0 (http://creativecommons.org/publicdomain/zero/1.0/)",
      "source": "https://sketchfab.com/3d-models/pharmaceutical-mortar-331027dcfc934eec955d30abf8cf9916",
      "title": "Pharmaceutical mortar"
    },
    "generator": "Sketchfab-12.68.0",
    "version": "2.0"
  },
  "bufferViews": [
    {
      "buffer": 0,
      "byteLength": 1191384,
      "name": "floatBufferViews",
      "target": 34963
    },
    {
      "buffer": 0,
      "byteLength": 406016,
      "byteOffset": 1191384,
      "byteStride": 8,
      "name": "floatBufferViews",
      "target": 34962
    },
    {
      "buffer": 0,
      "byteLength": 1218048,
      "byteOffset": 1597400,
      "byteStride": 12,
      "name": "floatBufferViews",
      "target": 34962
    },
    {
      "buffer": 0,
      "byteLength": 812032,
      "byteOffset": 2815448,
      "byteStride": 16,
      "name": "floatBufferViews",
      "target": 34962
    }
  ],
  "buffers": [
    {
      "byteLength": 3627480,
      "uri": "scene.bin"
    }
  ],
  "images": [
    {
      "uri": "textures/wire_177028149_baseColor.jpeg"
    },
    {
      "uri": "textures/wire_177028149_metallicRoughness.png"
    },
    {
      "uri": "textures/wire_177028149_emissive.jpeg"
    },
    {
      "uri": "textures/wire_177028149_normal.png"
    }
  ],
  "materials": [
    {
      "doubleSided": true,
      "emissiveFactor": [
        0.2,
        0.2,
        0.2
      ],
      "emissiveTexture": {
        "index": 2
      },
      "name": "wire_177028149",
      "normalTexture": {
        "index": 3
      },
      "pbrMetallicRoughness": {
        "baseColorTexture": {
          "index": 0
        },
        "metallicRoughnessTexture": {
          "index": 1
        }
      }
    }
  ],
  "meshes": [
    {
      "name": "Object_0",
      "primitives": [
        {
          "attributes": {
            "NORMAL": 1,
            "POSITION": 0,
            "TANGENT": 2,
            "TEXCOORD_0": 3
          },
          "indices": 4,
          "material": 0,
          "mode": 4
        }
      ]
    }
  ],
  "nodes": [
    {
      "children": [
        1
      ],
      "matrix": [
        1.0,
        -4.8033446892643715e-32,
        1.6081226229577292e-16,
        0.0,
        1.232595164407831e-32,
        -1.0,
        -4.440892098500626e-16,
        0.0,
        1.6081226229577292e-16,
        4.440892098500626e-16,
        -1.0,
        0.0,
        -1.0842021724855044e-19,
        0.0007276611286215483,
        0.000686401384882629,
        1.0
      ],
      "name": "Sketchfab_model"
    },
    {
      "children": [
        2
      ],
      "matrix": [
        1.0,
        0.0,
        0.0,
        0.0,
        0.0,
        1.0,
        0.0,
        0.0,
        0.0,
        0.0,
        1.0,
        0.0,
        -230.64349365234375,
        -184.39309692382813,
        -231.44900512695313,
        1.0
      ],
      "name": "ZKWawel_1475_Mozdzierz_aptekarski.obj.cleaner.gles"
    },
    {
      "children": [
        3
      ],
      "name": "Object_2"
    },
    {
      "mesh": 0,
      "name": "Object_3"
    }
  ],
  "samplers": [
    {
      "magFilter": 9729,
      "minFilter": 9987,
      "wrapS": 10497,
      "wrapT": 10497
    }
  ],
  "scene": 0,
  "scenes": [
    {
      "name": "Sketchfab_Scene",
      "nodes": [
        0
      ]
    }
  ],
  "textures": [
    {
      "sampler": 0,
      "source": 0
    },
    {
      "sampler": 0,
      "source": 1
    },
    {
      "sampler": 0,
      "source": 2
    },
    {
      "sampler": 0,
      "source": 3
    }
  ]
}
